<svg t="1781443083352" class="icon" viewBox="0 0 1024 1024" version="1.1" xmlns="http://www.w3.org/2000/svg" p-id="5008" width="200" height="200"><path d="M849.5 208.25v202.5c0 20.25-13.5 33.75-33.75 33.75s-33.75-13.5-33.75-33.75V289.25L603.125 468.125c-6.75 6.75-13.5 10.125-23.625 10.125s-16.875-3.375-23.625-10.125a32.625 32.625 0 0 1 0-47.25l178.875-178.875H613.25c-20.25 0-33.75-13.5-33.75-33.75s13.5-33.75 33.75-33.75h202.5c3.375 0 10.125 0 13.5 3.375 6.75 3.375 13.5 10.125 16.875 16.875 3.375 3.375 3.375 10.125 3.375 13.5zM420.875 555.875L242 734.75V613.25c0-20.25-13.5-33.75-33.75-33.75s-33.75 13.5-33.75 33.75v202.5c0 3.375 0 10.125 3.375 13.5 3.375 6.75 10.125 13.5 16.875 16.875 3.375 3.375 10.125 3.375 13.5 3.375h202.5c20.25 0 33.75-13.5 33.75-33.75s-13.5-33.75-33.75-33.75H289.25l178.875-178.875a32.625 32.625 0 0 0 0-47.25 32.625 32.625 0 0 0-47.25 0z" p-id="5009" fill="#6a7484"></path></svg>